# xmcd
#
# Track frame offsets: 
#        150
#        16249
#        35767
#        52826
#        66410
#        86065
#        104517
#        120806
#        139656
#        147221
#        160440
#        177997
#        193275
#        207000
#        224249
#        242211
#        261823
#        280888
#        301731
#
# Disc length: 4340 seconds
#
# Revision: 0
# Processed by: cddbd v1.5.2PL0 Copyright (c) Steve Scherf et al.
# Submitted via: ExactAudioCopy v1.0b1
#
DISCID=1f10f213
DTITLE=Solonen - Eilen, T‰n‰‰n and Huomenna
DYEAR=2004
DGENRE=Hip-Hop
TTITLE0=J‰lleen Kerran
TTITLE1=Eilen, T‰n‰‰n and Huomenna
TTITLE2=Pysy Vahvana (feat. Petja and Anniina)
TTITLE3=T‰n‰‰n Kaikki On Hyvin
TTITLE4=Meid‰n Suomi (feat. Visa, Casper and Veejay)
TTITLE5=Omissa Oloissa (feat. Milla)
TTITLE6=PelimiesAnthem [2003] (feat. MGi)
TTITLE7=Jos S‰ Saisit Mut (feat. Anniina)
TTITLE8=Miten Te Jaksatte [Skit]
TTITLE9=Pommi (feat.Alamaa)
TTITLE10=Liikaa Paineita
TTITLE11=Kaikki Messis?
TTITLE12=Julkisuus ja Raha
TTITLE13=Tyhj‰ Olotila (feat. STB)
TTITLE14=Kaikki Kuolee Aikanaan (feat. Laalaa and Anniina)
TTITLE15=Tarina (feat. Reija)
TTITLE16=Vastaisku (feat. Alamaa and Mr.P3)
TTITLE17=Freestyle [Outro]
TTITLE18=Bonus
EXTD=
EXTT0=
EXTT1=
EXTT2=
EXTT3=
EXTT4=
EXTT5=
EXTT6=
EXTT7=
EXTT8=
EXTT9=
EXTT10=
EXTT11=
EXTT12=
EXTT13=
EXTT14=
EXTT15=
EXTT16=
EXTT17=
EXTT18=
PLAYORDER=
